<svg width="32" height="32" viewBox="0 0 32 32" fill="none" xmlns="http://www.w3.org/2000/svg">
<rect width="32" height="32" rx="6" fill="#0891b2"/>
<path d="M6 20C8 16 10 14 12 16C14 18 16 12 18 14C20 16 22 10 24 12C26 14 27 12 28 12V24C28 24 28 26 26 26H6C4 26 4 24 4 24V20C4 20 5 22 6 20Z" fill="rgba(255,255,255,0.3)"/>
<path d="M6 22C9 18 11 17 13 19C15 21 17 15 19 17C21 19 23 14 25 16C27 18 28 15 28 16V26H6C4 26 4 24 4 24V22C4 22 5 24 6 22Z" fill="rgba(255,255,255,0.5)"/>
<circle cx="10" cy="10" r="2" fill="rgba(255,255,255,0.8)"/>
</svg>
